<svg xmlns="http://www.w3.org/2000/svg" viewBox="0 0 240 240" fill="none">
  <defs>
    <linearGradient id="r" x1="25" y1="70" x2="205" y2="220" gradientUnits="userSpaceOnUse"><stop stop-color="#00eaff"/><stop offset=".28" stop-color="#0785ff"/><stop offset=".51" stop-color="#9a22e8"/><stop offset=".7" stop-color="#ff249c"/><stop offset=".86" stop-color="#ff8616"/><stop offset="1" stop-color="#fff36b"/></linearGradient>
    <linearGradient id="w" x1="90" y1="65" x2="165" y2="170" gradientUnits="userSpaceOnUse"><stop stop-color="#fff477"/><stop offset=".4" stop-color="#ff8a00"/><stop offset="1" stop-color="#ff199d"/></linearGradient>
    <linearGradient id="d" x1="100" y1="15" x2="155" y2="120" gradientUnits="userSpaceOnUse"><stop stop-color="#02efff"/><stop offset=".5" stop-color="#096bd9"/><stop offset="1" stop-color="#5314a8"/></linearGradient>
  </defs>
  <path d="M7 92C43 99 61 57 101 41C72 68 64 103 25 113C39 104 44 98 47 91C33 99 18 98 7 92Z" fill="url(#w)"/><path d="M4 121C39 129 59 91 91 72C71 96 59 127 22 139C34 130 40 124 43 117C29 125 15 125 4 121Z" fill="url(#r)"/><path d="M10 149C37 155 55 127 76 111C62 132 48 153 22 161C30 155 35 151 38 146C27 151 18 152 10 149Z" fill="#20caff"/>
  <circle cx="139" cy="72" r="57" fill="url(#d)" stroke="#daffff" stroke-width="3"/><path d="M104 46l-6 11M131 26q8-2 15 0M174 42l6 12" stroke="#b8ffff" stroke-width="5" stroke-linecap="round"/><path d="M128 53Q125 51 125 57V91Q125 97 131 93L157 77Q162 73 156 69Z" fill="url(#w)" stroke="#352574" stroke-width="3"/>
  <path d="M23 222L52 105C59 76 81 62 96 91L125 140Q130 149 139 138L180 83C205 54 229 67 225 100L209 184Q204 221 174 222L185 145Q189 119 174 138L140 175Q122 194 108 171L83 118Q78 109 74 129L59 191Q52 222 23 222Z" fill="url(#r)" stroke="#e3faff" stroke-width="3"/><path d="M83 104Q90 91 100 112L122 149Q130 161 144 145L183 100Q207 74 219 87" stroke="url(#w)" stroke-width="15" stroke-linecap="round"/>
</svg>
